<svg xmlns="http://www.w3.org/2000/svg" width="1000" height="1000" viewBox="0 0 1000 1000">
  <defs>
    <style>
      .cls-1 {
        fill: #02132b;
        fill-rule: evenodd;
      }

      .cls-2 {
        fill: #58aaff;
      }
    </style>
  </defs>
  <path id="g" class="cls-1" d="M598.17,921.42q80.78-37.632,80.788-135.111,0-76.623-52.929-116.3-52.921-39.7-151.8-39.7H291.762q-50.149,0-68.948-11.133Q204,608.043,204.006,584.349q0-36.2,37.6-59.176a162.814,162.814,0,0,1,80.8-24.382q23.677,2.77,41.074,4.87a336.366,336.366,0,0,0,39.7,2.082q132.315,0,196.385-60.587t64.079-170.609q0-44.583-13.937-81.492t-45.96-63.374H723.525L727.706,53.7H489.541q-18.109-4.181-50.846-9.051a429.372,429.372,0,0,0-63.374-4.886q-147.654,0-219.374,56.422Q84.211,152.6,84.227,276.547q0,68.26,26.465,117.7,26.448,49.444,82.181,77.295-51.536,15.313-77.311,52.224T89.8,601.074q0,122.567,182.465,122.567h175.5q65.44,0,91.216,15.314t25.776,51.536q0,51.535-48.748,64.079Q467.241,867.089,362.794,867.1a967.776,967.776,0,0,1-133.717-9.74q-69.645-9.773-125.354-27.875v94.725q50.125,18.086,120.484,26.465a1223.885,1223.885,0,0,0,144.162,8.346Q517.383,959.018,598.17,921.42ZM238.128,387.275q-39.7-34.1-39.68-110.728,0-83.574,41.779-118.385,41.763-34.81,135.094-34.827,94.707,0,134.4,36.221t39.7,116.991q0,80.779-37.6,112.811T375.321,421.4Q277.816,421.4,238.128,387.275Z"/>
  <circle id="Elipse_1" data-name="Elipse 1" class="cls-2" cx="840" cy="820" r="87"/>
</svg>
