<svg xmlns="http://www.w3.org/2000/svg" width="960" height="540" viewBox="0 0 960 540" role="img" aria-label="Anúncio de item gamer no marketplace">
  <rect width="960" height="540" fill="#f8fafc"/>
  <rect x="80" y="70" width="800" height="400" rx="28" fill="#111827"/>
  <path d="M105 360h750v110H105z" fill="#334155"/>
  <path d="M202 318c42-78 98-118 170-118h218c70 0 127 40 169 118l34 64H168l34-64Z" fill="#2563eb"/>
  <path d="M314 218h334l69 100H245l69-100Z" fill="#60a5fa"/>
  <circle cx="300" cy="382" r="58" fill="#020617"/>
  <circle cx="300" cy="382" r="24" fill="#e5e7eb"/>
  <circle cx="663" cy="382" r="58" fill="#020617"/>
  <circle cx="663" cy="382" r="24" fill="#e5e7eb"/>
  <rect x="628" y="112" width="170" height="56" rx="12" fill="#f59e0b"/>
  <path d="M660 142h106" stroke="#111827" stroke-width="18" stroke-linecap="round"/>
</svg>
