<svg xmlns="http://www.w3.org/2000/svg" width="960" height="540" viewBox="0 0 960 540" role="img" aria-label="Servidor com canais da comunidade">
  <rect width="960" height="540" fill="#0b1220"/>
  <rect x="90" y="72" width="780" height="396" rx="30" fill="#ffffff"/>
  <rect x="126" y="112" width="180" height="316" rx="18" fill="#111827"/>
  <circle cx="172" cy="160" r="22" fill="#14b8a6"/>
  <rect x="210" y="145" width="62" height="14" rx="7" fill="#cbd5e1"/>
  <rect x="160" y="210" width="112" height="18" rx="9" fill="#334155"/>
  <rect x="160" y="250" width="96" height="18" rx="9" fill="#334155"/>
  <rect x="160" y="290" width="128" height="18" rx="9" fill="#334155"/>
  <rect x="344" y="112" width="214" height="140" rx="18" fill="#dbeafe"/>
  <rect x="588" y="112" width="214" height="140" rx="18" fill="#dcfce7"/>
  <rect x="344" y="288" width="214" height="140" rx="18" fill="#ffedd5"/>
  <rect x="588" y="288" width="214" height="140" rx="18" fill="#fee2e2"/>
  <path d="M388 177h126M388 207h86M632 177h126M632 207h86M388 353h126M388 383h86M632 353h126M632 383h86" stroke="#111827" stroke-width="18" stroke-linecap="round" opacity=".75"/>
</svg>
